<svg xmlns="http://www.w3.org/2000/svg" width="383.058" height="383.058" viewBox="0 0 383.058 383.058">
  <g id="Group_19" data-name="Group 19" transform="translate(-14.8 -19.96)">
    <path id="Path_55" data-name="Path 55" d="M248.946,8.537C332.359,37.32,376.709,128.076,347.926,211.2c-28.783,83.413-119.539,127.763-202.659,98.98a159.157,159.157,0,0,1-98.98-202.659C75.071,24.1,165.827-19.659,248.946,8.537Z" transform="translate(9.09 52)" fill="#f7e842" fill-rule="evenodd"/>
    <g id="Group_18" data-name="Group 18" transform="translate(16.3 21.46)">
      <path id="Path_56" data-name="Path 56" d="M140.762,41.1a90.462,90.462,0,1,0,90.462,90.462C231.224,81.925,190.693,41.1,140.762,41.1Zm0,166.826a76.086,76.086,0,0,1-76.07-76.07c0-42,34.07-76.364,76.07-76.364s76.07,34.364,76.07,76.364A76.086,76.086,0,0,1,140.762,207.926Z" transform="translate(49.561 58.173)" fill="#4e4e4e" stroke="#f7e842" stroke-width="3"/>
      <path id="Path_57" data-name="Path 57" d="M79.1,102.755h39.357a6.958,6.958,0,0,0,7.049-7.049,8.576,8.576,0,0,0-.587-2.643L105.825,12.88A7.238,7.238,0,0,0,98.776,7.3h0a7.5,7.5,0,0,0-7.049,5.58L81.741,53.412,72.048,93.65a6.864,6.864,0,0,0,1.469,6.168A6.684,6.684,0,0,0,79.1,102.755ZM95.839,56.937l2.937-12.042,10.573,43.469H88.2Z" transform="translate(91.253 -7.3)" fill="#4e4e4e" stroke="#f7e842" stroke-width="3"/>
      <path id="Path_58" data-name="Path 58" d="M118.373,104.2H79.016a6.451,6.451,0,0,0-5.58,2.643,7.851,7.851,0,0,0-1.469,6.168l9.692,40.532,9.986,40.532a7.5,7.5,0,0,0,7.049,5.58h0a7.5,7.5,0,0,0,7.049-5.58l19.678-81.063a6.864,6.864,0,0,0-1.469-6.168A6.451,6.451,0,0,0,118.373,104.2ZM98.695,162.061,88.121,118.3h21.147Z" transform="translate(91.334 180.403)" fill="#4e4e4e" stroke="#f7e842" stroke-width="3"/>
      <path id="Path_59" data-name="Path 59" d="M90.048,84.329a7.245,7.245,0,0,0,3.524,5.287l34.07,19.678a7.82,7.82,0,0,0,3.524.881,8.576,8.576,0,0,0,2.643-.587,7.269,7.269,0,0,0,4.112-4.7L161.419,25a7.186,7.186,0,0,0-12.042-7.049l-57.567,60.5A7.1,7.1,0,0,0,90.048,84.329Zm49.343-34.951L126.762,91.965l-18.21-10.573Z" transform="translate(126.414 9.071)" fill="#4e4e4e" stroke="#f7e842" stroke-width="3"/>
      <path id="Path_60" data-name="Path 60" d="M119.046,122.007a7.245,7.245,0,0,0-3.524-5.287L81.452,97.042a7.513,7.513,0,0,0-6.168-.587,7.269,7.269,0,0,0-4.112,4.7L59.424,141.1,47.969,181.042a7.532,7.532,0,0,0,3.231,8.224,7.82,7.82,0,0,0,3.524.881,7.355,7.355,0,0,0,5.287-2.35L88.5,157.546l28.783-30.252C118.753,126.413,119.34,124.063,119.046,122.007Zm-41.119,26.14L69.7,156.665l12.629-42.588,18.21,10.573Z" transform="translate(44.549 164.652)" fill="#4e4e4e" stroke="#f7e842" stroke-width="3"/>
      <path id="Path_61" data-name="Path 61" d="M105.638,66.691a6.556,6.556,0,0,0,.587,6.168l9.692,17.035,9.986,17.035a7.532,7.532,0,0,0,5.287,3.525h.881a6.879,6.879,0,0,0,4.993-2.056l29.958-28.783,30.252-28.783a7.186,7.186,0,0,0-7.049-12.042l-79.889,23.5A9.826,9.826,0,0,0,105.638,66.691Zm60.21-5.58L133.834,91.95,123.26,73.74Z" transform="translate(155.762 53.142)" fill="#4e4e4e" stroke="#f7e842" stroke-width="3"/>
      <path id="Path_62" data-name="Path 62" d="M118.781,124.811a6.556,6.556,0,0,0-.587-6.168L98.515,84.573a6.751,6.751,0,0,0-5.287-3.525,7.1,7.1,0,0,0-5.874,1.762l-60.5,57.567a7.12,7.12,0,0,0-1.175,8.811,6.9,6.9,0,0,0,6.168,3.525,5,5,0,0,0,2.056-.294l79.889-23.5A7.131,7.131,0,0,0,118.781,124.811Zm-60.21,5.58L90.879,99.846l10.573,18.21Z" transform="translate(-0.123 135.415)" fill="#4e4e4e" stroke="#f7e842" stroke-width="3"/>
      <path id="Path_63" data-name="Path 63" d="M202.881,82.727l-80.77-19.678a6.864,6.864,0,0,0-6.168,1.469A7.233,7.233,0,0,0,113.3,70.1v39.357a6.451,6.451,0,0,0,2.643,5.58,7.914,7.914,0,0,0,4.406,1.469,3.725,3.725,0,0,0,1.762-.294l40.238-9.692,40.532-9.986a7.5,7.5,0,0,0,5.58-7.049A6.913,6.913,0,0,0,202.881,82.727Zm-75.189,17.622V79.2L171.16,89.776Z" transform="translate(171.597 100.253)" fill="#4e4e4e" stroke="#f7e842" stroke-width="3"/>
      <path id="Path_64" data-name="Path 64" d="M102.944,116.422c.587,0,1.175.294,1.762.294a7.914,7.914,0,0,0,4.406-1.469,7.233,7.233,0,0,0,2.643-5.58V70.017a6.451,6.451,0,0,0-2.643-5.58,7.851,7.851,0,0,0-6.168-1.469L21.88,82.646a7.238,7.238,0,0,0-5.58,7.049,7.5,7.5,0,0,0,5.58,7.049l40.532,9.986Zm-5.287-37.3v21.147l-31.72-7.636L53.895,89.695Z" transform="translate(-16.3 100.334)" fill="#4e4e4e" stroke="#f7e842" stroke-width="3"/>
      <path id="Path_65" data-name="Path 65" d="M196.6,140.072l-29.664-28.2L136.981,83.093a7.05,7.05,0,0,0-11.161,1.469L115.834,101.6l-9.692,17.035a7.513,7.513,0,0,0-.587,6.168,7.27,7.27,0,0,0,4.7,4.112l79.889,23.5a5,5,0,0,0,2.056.294h0a7.147,7.147,0,0,0,7.049-7.049A5.824,5.824,0,0,0,196.6,140.072Zm-73.427-22.322,10.574-18.21,23.5,22.616,8.518,8.224Z" transform="translate(155.846 135.426)" fill="#4e4e4e" stroke="#f7e842" stroke-width="3"/>
      <path id="Path_66" data-name="Path 66" d="M87.067,108.3a8.332,8.332,0,0,0,4.993,2.056h1.175a7.245,7.245,0,0,0,5.287-3.524L118.2,72.765a7.513,7.513,0,0,0,.587-6.168,7.269,7.269,0,0,0-4.7-4.112L34.2,38.989a7.186,7.186,0,0,0-7.049,12.042Zm13.8-34.951L90.3,91.563,57.99,61.017Z" transform="translate(0.458 53.529)" fill="#4e4e4e" stroke="#f7e842" stroke-width="3"/>
      <path id="Path_67" data-name="Path 67" d="M137.923,101.337a7.269,7.269,0,0,0-4.112-4.7,6.556,6.556,0,0,0-6.168.587L93.573,116.9a6.751,6.751,0,0,0-3.524,5.287,7.1,7.1,0,0,0,1.762,5.874l57.567,60.5a7.355,7.355,0,0,0,5.287,2.35h0a6.958,6.958,0,0,0,7.049-7.049,8.69,8.69,0,0,0-.587-2.937Zm-29.371,23.2,18.21-10.573,12.629,42.588Z" transform="translate(126.415 164.762)" fill="#4e4e4e" stroke="#f7e842" stroke-width="3"/>
      <path id="Path_68" data-name="Path 68" d="M59.522,64.944,71.27,104.888a7.269,7.269,0,0,0,4.112,4.7,8.576,8.576,0,0,0,2.643.587,7.821,7.821,0,0,0,3.525-.881l34.07-19.678a6.751,6.751,0,0,0,3.524-5.287,7.1,7.1,0,0,0-1.762-5.874L88.6,48.2,60.11,17.951A7.12,7.12,0,0,0,51.3,16.776,6.781,6.781,0,0,0,48.067,25Zm41.119,16.741L82.431,92.259l-9.1-31.133L70.1,49.671Z" transform="translate(44.451 9.071)" fill="#4e4e4e" stroke="#f7e842" stroke-width="3"/>
    </g>
  </g>
</svg>
