<svg xmlns="http://www.w3.org/2000/svg" width="37.02" height="24" viewBox="0 0 37.02 24">
  <g id="Group_95" data-name="Group 95" transform="translate(-462.1 -23.7)">
    <path id="Path_296" data-name="Path 296" d="M537,34.913a10.925,10.925,0,1,1-13.882,6.78A10.91,10.91,0,0,1,537,34.913Z" transform="translate(-48.258 -8.477)" fill="#f7e842" fill-rule="evenodd"/>
    <path id="Path_297" data-name="Path 297" d="M495.176,32.07a3.813,3.813,0,0,0-1.509.3,5.089,5.089,0,0,0,.02-.563,8.144,8.144,0,0,0-15.009-4.346,7.982,7.982,0,0,0-3.018-.583,8.131,8.131,0,0,0-8.128,8.128,4.9,4.9,0,0,0,.02.543,4.2,4.2,0,0,0-1.509-.3,3.943,3.943,0,1,0,0,7.887H491.9a2.791,2.791,0,0,0,2.8-2.8,2.724,2.724,0,0,0-.04-.4h.523a3.933,3.933,0,1,0,0-7.867ZM491.9,42.149H466.023a2.958,2.958,0,1,1,0-5.915,2.824,2.824,0,0,1,1.811.624.484.484,0,0,0,.563.04.472.472,0,0,0,.241-.5,9.806,9.806,0,0,1-.141-1.388,7.129,7.129,0,0,1,12.776-4.366c.04.04.081.1.121.141.02.04.06.06.08.1a7.515,7.515,0,0,1,1.046,2.133v.02a2.354,2.354,0,0,1,.1.4c0,.02.02.04.02.06s.02.04.02.06c.02.02.02.04.04.06,0,.02.02.02.02.04l.08.08h0c.04.02.06.04.1.06a.121.121,0,0,0,.08.02h.04a.421.421,0,0,0,.342-.08,4.573,4.573,0,0,1,2.535-.765,4.62,4.62,0,0,1,4.607,4.607c0,.2-.02.4-.04.6a.472.472,0,0,0,.2.443.517.517,0,0,0,.483.06,1.848,1.848,0,0,1,1.388-.04,1.809,1.809,0,0,1-.644,3.5Zm3.279-3.179h-.845a2.764,2.764,0,0,0-1.63-1.308h0a2.191,2.191,0,0,0-.523-.1h-.06c-.08,0-.161-.02-.262-.02a2.7,2.7,0,0,0-.4.02,5.607,5.607,0,0,0-5.593-5.593h-.322a.255.255,0,0,0-.121.02c-.06,0-.141.02-.2.02a.121.121,0,0,0-.08.02c-.08.02-.161.02-.241.04h-.02l-.3.06h-.02a3.441,3.441,0,0,0-.6.181h-.02c-.1.04-.181.08-.282.121-.02.02-.04.02-.08.04-.08.04-.141.06-.221.1A8.243,8.243,0,0,0,482.34,30.5c-.02-.02-.04-.06-.06-.08l-.121-.181c-.04-.06-.1-.141-.141-.2l-.02-.02a8.228,8.228,0,0,0-2.495-2.133,7.225,7.225,0,0,1,5.975-3.2,7.14,7.14,0,0,1,7.142,7.122,6.451,6.451,0,0,1-.141,1.368.5.5,0,0,0,.221.523.519.519,0,0,0,.563-.02,3.063,3.063,0,0,1,1.851-.624,2.962,2.962,0,0,1,2.958,2.958A2.874,2.874,0,0,1,495.176,38.971Z" fill="#141515"/>
  </g>
</svg>
