<svg xmlns="http://www.w3.org/2000/svg" width="25.673" height="24" viewBox="0 0 25.673 24">
  <g id="Group_101" data-name="Group 101" transform="translate(-462.1 -194.6)">
    <path id="Path_312" data-name="Path 312" d="M498.751,196.962a7.572,7.572,0,1,1-9.622,4.7,7.568,7.568,0,0,1,9.622-4.7Z" transform="translate(-22.901 -1.679)" fill="#f7e842" fill-rule="evenodd"/>
    <g id="Group_100" data-name="Group 100" transform="translate(462.1 194.6)">
      <path id="Path_313" data-name="Path 313" d="M476.444,333.248h-1.339l.934-.934a.345.345,0,0,0-.488-.488l-.934.934v-1.325a.335.335,0,1,0-.669,0v1.325l-.934-.934a.345.345,0,0,0-.488.488l.934.934h-1.325a.335.335,0,0,0,0,.669h1.325l-.934.934a.337.337,0,0,0,0,.488.327.327,0,0,0,.237.1.306.306,0,0,0,.237-.1l.934-.934v1.325a.335.335,0,0,0,.669,0v-1.325l.934.934a.327.327,0,0,0,.237.1.306.306,0,0,0,.237-.1.337.337,0,0,0,0-.488l-.934-.934h1.339a.33.33,0,0,0,.335-.335A.287.287,0,0,0,476.444,333.248Z" transform="translate(-470.447 -312.065)" fill="#141515"/>
      <path id="Path_314" data-name="Path 314" d="M485.026,200.4a2.643,2.643,0,0,0-1.046.209,3.4,3.4,0,0,0,.014-.377,5.639,5.639,0,0,0-10.4-3.012,5.533,5.533,0,0,0-2.092-.4,5.636,5.636,0,0,0-5.634,5.634,3.526,3.526,0,0,0,.014.377,2.693,2.693,0,0,0-1.046-.209,2.74,2.74,0,0,0,0,5.481h17.92a1.946,1.946,0,0,0,1.938-1.952c0-.084-.014-.181-.014-.265h.363a2.74,2.74,0,0,0-.014-5.481Zm-2.273,7.015H464.819a2.057,2.057,0,0,1,0-4.114,2.083,2.083,0,0,1,1.269.432.361.361,0,0,0,.39.028.349.349,0,0,0,.167-.349,6.627,6.627,0,0,1-.1-.948,4.956,4.956,0,0,1,9.567-1.813c.014.042.028.07.042.112s.014.056.028.084c.014.056.042.126.056.181,0,.014.014.042.014.056.028.084.042.167.07.251a.072.072,0,0,0,.028.056v.014c.014.014.028.042.042.056a.014.014,0,0,0,.014.014l.042.042.014.014a.106.106,0,0,0,.056.028h.014a.373.373,0,0,0,.321-.028,3.206,3.206,0,0,1,4.951,2.664c0,.139-.014.279-.028.418a.327.327,0,0,0,.139.307.358.358,0,0,0,.167.07.354.354,0,0,0,.167-.028,1.2,1.2,0,0,1,.5-.1.679.679,0,0,1,.167.014h.042c.056.014.1.014.153.028h.014a.583.583,0,0,1,.139.056c.014.014.042.014.056.028l.084.042c.042.028.07.042.112.07.014.014.028.028.042.028.028.028.056.042.084.07h0a1.265,1.265,0,0,1,.363.893A1.284,1.284,0,0,1,482.753,207.416Zm2.273-2.217h-.586a2,2,0,0,0-1.116-.906c-.014,0-.014,0-.028-.014a2.57,2.57,0,0,0-.349-.07h-.042c-.056,0-.112-.014-.181-.014a1.869,1.869,0,0,0-.279.014h0a3.881,3.881,0,0,0-5.606-3.458,1.37,1.37,0,0,1-.07-.223,5.558,5.558,0,0,0-2.594-3.012,5,5,0,0,1,4.142-2.231,4.952,4.952,0,0,1,4.951,4.951,4.435,4.435,0,0,1-.1.934.347.347,0,0,0,.153.363.36.36,0,0,0,.39-.014,2.123,2.123,0,0,1,1.283-.432,2.053,2.053,0,0,1,2.05,2.05A2.015,2.015,0,0,1,485.026,205.2Z" transform="translate(-462.1 -194.6)" fill="#141515"/>
      <path id="Path_315" data-name="Path 315" d="M473.886,302.5a.371.371,0,0,0,.167.042.328.328,0,0,0,.293-.167l2.148-3.709a.337.337,0,1,0-.586-.335l-2.148,3.709A.357.357,0,0,0,473.886,302.5Z" transform="translate(-472.101 -283.714)" fill="#141515"/>
      <path id="Path_316" data-name="Path 316" d="M513.711,298.1a.325.325,0,0,0-.46.126l-2.148,3.723a.325.325,0,0,0,.126.46.371.371,0,0,0,.167.042.328.328,0,0,0,.293-.167l2.148-3.709A.344.344,0,0,0,513.711,298.1Z" transform="translate(-504.228 -283.628)" fill="#141515"/>
      <path id="Path_317" data-name="Path 317" d="M588.525,298.1a.325.325,0,0,0-.46.126l-2.162,3.709a.325.325,0,0,0,.125.46.371.371,0,0,0,.167.042.328.328,0,0,0,.293-.167l2.162-3.709A.331.331,0,0,0,588.525,298.1Z" transform="translate(-568.597 -283.628)" fill="#141515"/>
      <path id="Path_318" data-name="Path 318" d="M519.611,333.2a.325.325,0,0,0-.46.126L517,337.039a.325.325,0,0,0,.125.46.371.371,0,0,0,.167.042.328.328,0,0,0,.293-.167l2.148-3.709A.328.328,0,0,0,519.611,333.2Z" transform="translate(-509.306 -313.833)" fill="#141515"/>
      <path id="Path_319" data-name="Path 319" d="M557.011,333.2a.325.325,0,0,0-.46.126l-2.148,3.709a.325.325,0,0,0,.125.46.371.371,0,0,0,.167.042.328.328,0,0,0,.293-.167l2.148-3.709A.328.328,0,0,0,557.011,333.2Z" transform="translate(-541.49 -313.833)" fill="#141515"/>
      <path id="Path_320" data-name="Path 320" d="M545.644,298.234h-1.325l.934-.934a.345.345,0,1,0-.488-.488l-.934.934v-1.311a.335.335,0,1,0-.669,0v1.325l-.948-.948a.345.345,0,1,0-.488.488l.934.934h-1.325a.335.335,0,0,0,0,.669h1.325l-.934.934a.337.337,0,0,0,0,.488.337.337,0,0,0,.474,0l.948-.948V300.7a.335.335,0,1,0,.669,0v-1.311l.934.934a.327.327,0,0,0,.237.1.306.306,0,0,0,.237-.1.337.337,0,0,0,0-.488l-.934-.934h1.325a.33.33,0,0,0,.335-.335A.287.287,0,0,0,545.644,298.234Z" transform="translate(-529.997 -281.945)" fill="#141515"/>
    </g>
  </g>
</svg>
