<svg xmlns="http://www.w3.org/2000/svg" width="31.56" height="24" viewBox="0 0 31.56 24">
  <g id="Group_94" data-name="Group 94" transform="translate(-227 -6.2)">
    <path id="Path_292" data-name="Path 292" d="M304.631,23.489a9.895,9.895,0,1,1-12.574,6.141,9.9,9.9,0,0,1,12.574-6.141Z" transform="translate(-52.756 -13.699)" fill="#f7e842" fill-rule="evenodd"/>
    <g id="Group_93" data-name="Group 93" transform="translate(227 6.2)">
      <path id="Path_293" data-name="Path 293" d="M356.352,39.233a.465.465,0,0,0,.018.383l.62,1.075.62,1.057a.467.467,0,0,0,.328.219h.055a.427.427,0,0,0,.31-.128l1.859-1.786,1.877-1.786a.446.446,0,0,0-.437-.747l-2.478.729-2.478.711A.479.479,0,0,0,356.352,39.233Zm3.025-.128.711-.2L358.1,40.819l-.328-.565-.328-.583Z" transform="translate(-332.753 -31.798)" fill="#141515"/>
      <path id="Path_294" data-name="Path 294" d="M257.615,43.233,252.6,42.012a.426.426,0,0,0-.383.091.449.449,0,0,0-.164.346v2.442a.4.4,0,0,0,.164.346.1.1,0,0,0,.073.036h-.109a.449.449,0,0,0-.328.219l-.583.984c-.073-.036-.128-.073-.2-.109a5.694,5.694,0,0,0,.711-2.715A5.622,5.622,0,0,0,241.05,41.32c-.073-.018-.164-.036-.255-.055l.893-1.567a.408.408,0,0,0,.018-.383.451.451,0,0,0-.292-.255l-2.478-.711-2.46-.729a.446.446,0,0,0-.437.747l1.859,1.786,1.039.984a7.369,7.369,0,0,0-7,7.362,4.438,4.438,0,0,0,.018.492,3.519,3.519,0,0,0-1.367-.273,3.581,3.581,0,1,0,0,7.162h23.4a2.542,2.542,0,1,0,0-5.084,2.442,2.442,0,0,0-.364.018h0a4.761,4.761,0,0,0-.328-1.768h.018l2.478.711a.31.31,0,0,0,.128.018h0a.443.443,0,0,0,.437-.437.415.415,0,0,0-.182-.346l-1.841-1.749-1.859-1.786a.381.381,0,0,0-.109-.073h.055a.231.231,0,0,0,.109-.018l2.5-.62,2.515-.6a.449.449,0,0,0,.346-.437A.366.366,0,0,0,257.615,43.233Zm-15.69-1.658A4.719,4.719,0,1,1,250.253,46c-.018,0-.055-.018-.073-.018a5.429,5.429,0,0,0-1.458-.255h-.456a4.23,4.23,0,0,0-.838.128h-.018c-.073.018-.164.036-.237.055-.018,0-.036.018-.055.018-.073.018-.128.036-.2.055-.018,0-.055.018-.073.018-.055.018-.128.055-.182.073-.018.018-.055.018-.073.036-.073.036-.164.073-.237.109a.888.888,0,0,0-.073-.2c-.018-.036-.018-.073-.036-.109-.018-.073-.055-.146-.073-.2-.018-.036-.036-.091-.055-.128-.036-.073-.055-.128-.091-.2-.036-.091-.091-.182-.128-.273a.457.457,0,0,0-.073-.128c-.036-.073-.091-.146-.128-.237-.018-.036-.036-.055-.055-.091a7.412,7.412,0,0,0-2.97-2.788h-.018c-.091-.055-.2-.091-.31-.146-.036-.018-.091-.036-.128-.055-.055-.018-.128-.055-.2-.073C242.016,41.611,241.98,41.593,241.925,41.575Zm-3.9-2.588,2.642.765-.656,1.13L238.554,39.5Zm16,12.665a1.649,1.649,0,1,1,0,3.3h-23.4a2.688,2.688,0,1,1,0-5.376,2.544,2.544,0,0,1,1.64.583.471.471,0,0,0,.51.036.442.442,0,0,0,.2-.474,6.874,6.874,0,0,1-.109-1.257,6.467,6.467,0,0,1,6.451-6.469,6.544,6.544,0,0,1,2.387.456.647.647,0,0,1,.164.073,2.138,2.138,0,0,1,.2.091.982.982,0,0,1,.237.128c.036.018.055.036.091.055.109.055.219.128.328.182l.018.018a6.564,6.564,0,0,1,1.294,1.057h0a5.413,5.413,0,0,1,.51.62c.018.018.018.036.036.055a1.806,1.806,0,0,1,.2.31.4.4,0,0,0,.055.091c.036.073.091.146.128.219.018.036.055.091.073.128a1.841,1.841,0,0,1,.128.273.762.762,0,0,1,.073.182c.018.055.036.091.055.146.036.091.073.2.109.292l.055.164.055.164c.036.109.055.219.091.328v.018h0l.146.638.547-.364a2.7,2.7,0,0,1,.237-.146c.018-.018.036-.018.073-.036a.851.851,0,0,1,.182-.091c.018-.018.036-.018.055-.036a1.115,1.115,0,0,1,.219-.091c.018,0,.018,0,.036-.018a4.778,4.778,0,0,1,1.148-.255h.237a5.023,5.023,0,0,1,1.44.219,4.606,4.606,0,0,1,1.112.583l.055.055a5.191,5.191,0,0,1,.474.419,4.176,4.176,0,0,1,1.148,2.879,4.85,4.85,0,0,1-.036.547.427.427,0,0,0,.182.4.468.468,0,0,0,.437.055A2.161,2.161,0,0,1,254.025,51.652Zm-.237-3.809.547.528-.729-.2-.838-.255a5.635,5.635,0,0,0-.6-.711L252,47.042l.346-.583Zm-.857-3.517V43.014l2.661.638Z" transform="translate(-227 -31.88)" fill="#141515"/>
      <path id="Path_295" data-name="Path 295" d="M299.386,10.792l.729,2.478a.434.434,0,0,0,.273.292.532.532,0,0,0,.164.036.433.433,0,0,0,.219-.055l1.039-.62,1.075-.6a.419.419,0,0,0,.219-.328v-.109c.018.018.018.055.036.073a.449.449,0,0,0,.346.164h2.442a.432.432,0,0,0,.419-.31.619.619,0,0,0-.018.182.45.45,0,0,0,.219.328l2.114,1.221a.485.485,0,0,0,.219.055.532.532,0,0,0,.164-.036.451.451,0,0,0,.255-.292l.711-2.478.729-2.478a.446.446,0,0,0-.747-.437l-1.786,1.877-1.786,1.859a.74.74,0,0,0-.091.164c0-.036.018-.073.018-.109a.532.532,0,0,0-.036-.164l-1.2-4.957a.449.449,0,0,0-.875,0l-.6,2.515-.62,2.5a.253.253,0,0,0,0,.164.381.381,0,0,0-.073-.109l-1.786-1.859-1.786-1.877a.446.446,0,0,0-.747.437Zm9.531-.419.51-.528-.765,2.642-1.13-.656ZM304.561,9.28l.182-.711.638,2.661h-1.312Zm-2.624,2.533-.583.328-.565.328-.565-1.932-.219-.729Z" transform="translate(-285.554 -6.2)" fill="#141515"/>
    </g>
  </g>
</svg>
