<svg xmlns="http://www.w3.org/2000/svg" width="26.214" height="24" viewBox="0 0 26.214 24">
  <g id="Group_106" data-name="Group 106" transform="translate(-473 -423.6)">
    <path id="Path_330" data-name="Path 330" d="M518.647,438.7a8.776,8.776,0,1,1-11.152,5.446,8.771,8.771,0,0,1,11.152-5.446Z" transform="translate(-28.515 -12.251)" fill="#f7e842" fill-rule="evenodd"/>
    <path id="Path_331" data-name="Path 331" d="M496.935,432.166a2.164,2.164,0,0,0-.323.016,4.485,4.485,0,0,0-6.481-4.008,6.525,6.525,0,0,0-12.752,1.956,3.936,3.936,0,0,0,.016.436,3.121,3.121,0,0,0-1.212-.242,3.176,3.176,0,1,0,0,6.352h5.931l-.776,3.232a.421.421,0,0,0,.113.388.379.379,0,0,0,.388.081l3.071-.97-2.149,7.693a.4.4,0,0,0,.226.469.479.479,0,0,0,.162.032.4.4,0,0,0,.339-.194l6.416-10.747h7.046a2.255,2.255,0,0,0,2.263-2.246A2.28,2.28,0,0,0,496.935,432.166Zm-11.071,6.739a.384.384,0,0,0-.113-.388.458.458,0,0,0-.275-.113.275.275,0,0,0-.113.016l-3.1.97,1.713-7.127h3.911l-1.535,3.669a.4.4,0,0,0,.065.42.379.379,0,0,0,.4.113l2.78-.873-5.285,8.873Zm11.071-3.022h-6.562l.453-.76h0a.059.059,0,0,0,.016-.048c.016-.016.016-.032.016-.065V434.9c0-.016-.016-.048-.016-.065a.059.059,0,0,0-.016-.048c-.016-.032-.032-.048-.048-.081,0-.016-.016-.016-.016-.032h0c-.016-.016-.016-.032-.032-.032h0l-.032-.032-.016-.016a.016.016,0,0,1-.016-.016.329.329,0,0,0-.323-.032l-2.958.937,1.438-3.442a.428.428,0,0,0-.032-.372.393.393,0,0,0-.323-.178h-4.8a.4.4,0,0,0-.242.081h0c-.016.016-.032.032-.048.032l-.016.016-.032.032c-.016.016-.016.032-.032.048v.016a.1.1,0,0,0-.016.065l-.016.032-.986,4.057h-6.109a2.384,2.384,0,1,1,0-4.768,2.256,2.256,0,0,1,1.455.517.418.418,0,0,0,.453.032.392.392,0,0,0,.178-.42,5.674,5.674,0,0,1-.1-1.1,5.734,5.734,0,0,1,11.329-1.261.378.378,0,0,0,.242.275.428.428,0,0,0,.372-.032,3.583,3.583,0,0,1,2.02-.614,3.7,3.7,0,0,1,3.685,3.7c0,.162-.016.323-.032.485a.361.361,0,0,0,.178.356.4.4,0,0,0,.4.032,1.22,1.22,0,0,1,.566-.113,1.476,1.476,0,0,1,1.471,1.471A1.448,1.448,0,0,1,496.935,435.883Z" fill="#141515"/>
  </g>
</svg>
