<svg xmlns="http://www.w3.org/2000/svg" width="23.4" height="18" viewBox="0 0 23.4 18">
  <g id="_1493748080_weather_icons-57" data-name="1493748080_weather_icons-57" transform="translate(-21.999 -28)">
    <g id="Group_32" data-name="Group 32" transform="translate(21.999 28)">
      <path id="Path_104" data-name="Path 104" d="M36.4,46H22.9a.9.9,0,1,0,0,1.8H36.4a3.15,3.15,0,1,1,0,6.3.9.9,0,0,0,0,1.8,4.95,4.95,0,1,0,0-9.9Z" transform="translate(-21.999 -37.899)" fill="#4e4e4e"/>
      <path id="Path_105" data-name="Path 105" d="M33.7,52H22.9a.9.9,0,0,0,0,1.8H33.7a.45.45,0,1,1,0,.9.9.9,0,1,0,0,1.8,2.25,2.25,0,0,0,0-4.5Z" transform="translate(-22 -41.2)" fill="#4e4e4e"/>
      <path id="Path_106" data-name="Path 106" d="M65.7,38a.9.9,0,1,0,0,1.8.45.45,0,0,1,0,.9H63.9a.9.9,0,0,0,0,1.8h1.8a2.25,2.25,0,0,0,0-4.5Z" transform="translate(-44.55 -33.5)" fill="#4e4e4e"/>
      <path id="Path_107" data-name="Path 107" d="M22.9,35.2h14.85a3.6,3.6,0,1,0-3.6-3.6.9.9,0,1,0,1.8,0,1.8,1.8,0,1,1,1.8,1.8H22.9a.9.9,0,1,0,0,1.8Z" transform="translate(-21.999 -28)" fill="#4e4e4e"/>
    </g>
  </g>
</svg>
