<svg xmlns="http://www.w3.org/2000/svg" width="23.283" height="24" viewBox="0 0 23.283 24">
  <g id="Group_110" data-name="Group 110" transform="translate(0 -182.412)">
    <path id="Path_346" data-name="Path 346" d="M41.8,182.842a7.8,7.8,0,1,1-9.917,4.843,7.8,7.8,0,0,1,9.917-4.843Z" transform="translate(-26.94 0)" fill="gray" fill-rule="evenodd"/>
    <g id="Group_109" data-name="Group 109" transform="translate(0 186.65)">
      <path id="Path_347" data-name="Path 347" d="M21.285,219.5a1.926,1.926,0,0,0-.287.014h0a4,4,0,0,0-5.778-3.564A5.749,5.749,0,0,0,9.687,211.9a5.818,5.818,0,0,0-5.806,5.806,3.5,3.5,0,0,0,.014.388,2.817,2.817,0,1,0-1.078,5.418H21.285a2,2,0,0,0,0-4.01Zm0,3.306H2.817a2.12,2.12,0,0,1,0-4.24,2.188,2.188,0,0,1,1.322.446.345.345,0,0,0,.4.014.349.349,0,0,0,.158-.374,4.572,4.572,0,0,1-.1-.963,5.1,5.1,0,0,1,10.075-1.135.336.336,0,0,0,.216.244.385.385,0,0,0,.331-.029,3.3,3.3,0,0,1,5.1,2.745,3.825,3.825,0,0,1-.029.431.337.337,0,0,0,.144.316.369.369,0,0,0,.345.043,1.232,1.232,0,0,1,.517-.1,1.288,1.288,0,0,1,1.294,1.294A1.322,1.322,0,0,1,21.285,222.809Z" transform="translate(0 -211.9)" fill="#fff"/>
      <path id="Path_348" data-name="Path 348" d="M38.971,304.2H22.845a.345.345,0,1,0,0,.69h16.14a.34.34,0,0,0,.345-.345A.353.353,0,0,0,38.971,304.2Z" transform="translate(-19.266 -290.934)" fill="#fff"/>
      <path id="Path_349" data-name="Path 349" d="M38.971,324.3H22.845a.34.34,0,0,0-.345.345.35.35,0,0,0,.345.345h16.14a.34.34,0,0,0,.345-.345A.353.353,0,0,0,38.971,324.3Z" transform="translate(-19.266 -308.146)" fill="#fff"/>
      <path id="Path_350" data-name="Path 350" d="M38.971,344.6H22.845a.345.345,0,0,0,0,.69h16.14a.34.34,0,0,0,.345-.345A.353.353,0,0,0,38.971,344.6Z" transform="translate(-19.266 -325.528)" fill="#fff"/>
    </g>
  </g>
</svg>
