<svg xmlns="http://www.w3.org/2000/svg" width="26.944" height="24" viewBox="0 0 26.944 24">
  <g id="Group_117" data-name="Group 117" transform="translate(-6.5 -421.812)">
    <path id="Path_371" data-name="Path 371" d="M32.4,422.353a9.832,9.832,0,1,1-12.508,6.1,9.821,9.821,0,0,1,12.508-6.1Z" transform="translate(-10.533)" fill="gray" fill-rule="evenodd"/>
    <g id="Group_116" data-name="Group 116" transform="translate(6.5 425.34)">
      <path id="Path_372" data-name="Path 372" d="M13.668,462.667h-2.3L13,461.038a.448.448,0,0,0-.634-.634l-1.629,1.629v-2.3a.434.434,0,0,0-.869,0v2.281L8.256,460.4a.448.448,0,1,0-.634.634l1.629,1.629H6.934a.434.434,0,1,0,0,.869h2.3l-1.611,1.611a.437.437,0,0,0,0,.634.424.424,0,0,0,.308.127.4.4,0,0,0,.308-.127l1.611-1.611v2.317a.434.434,0,1,0,.869,0v-2.317l1.629,1.629a.424.424,0,0,0,.308.127.4.4,0,0,0,.308-.127.437.437,0,0,0,0-.634l-1.611-1.611h2.281a.429.429,0,0,0,.434-.434A.379.379,0,0,0,13.668,462.667Z" transform="translate(-6.5 -456.042)" fill="#fff"/>
      <path id="Path_373" data-name="Path 373" d="M81.1,445.1a.429.429,0,0,0-.434-.434H78.387l1.629-1.611a.448.448,0,0,0-.634-.634l-1.629,1.629v-2.317a.434.434,0,1,0-.869,0v2.3l-1.611-1.611a.448.448,0,0,0-.634.634l1.629,1.611H73.934a.434.434,0,1,0,0,.869h2.3L74.6,447.147a.437.437,0,0,0,0,.634.437.437,0,0,0,.615,0l1.611-1.611v2.3a.434.434,0,1,0,.869,0v-2.317l1.629,1.629a.424.424,0,0,0,.308.127.4.4,0,0,0,.308-.127.437.437,0,0,0,0-.634l-1.629-1.611H80.6A.461.461,0,0,0,81.1,445.1Z" transform="translate(-61.372 -441.3)" fill="#fff"/>
      <path id="Path_374" data-name="Path 374" d="M56.768,515.949H54.451l1.629-1.629a.448.448,0,0,0-.634-.634l-1.611,1.629v-2.281a.429.429,0,0,0-.434-.434.44.44,0,0,0-.434.434v2.281l-1.611-1.629a.448.448,0,1,0-.634.634l1.629,1.629H50.034a.434.434,0,1,0,0,.869h2.3l-1.611,1.611a.437.437,0,0,0,0,.634.424.424,0,0,0,.308.127.4.4,0,0,0,.308-.127l1.611-1.629v2.3a.429.429,0,0,0,.434.434.44.44,0,0,0,.434-.434v-2.281l1.611,1.629a.437.437,0,0,0,.615,0,.437.437,0,0,0,0-.634l-1.611-1.611h2.3a.429.429,0,0,0,.434-.434A.4.4,0,0,0,56.768,515.949Z" transform="translate(-41.798 -499.694)" fill="#fff"/>
      <path id="Path_375" data-name="Path 375" d="M120.668,492.231h-2.3l1.611-1.611a.448.448,0,0,0-.634-.634l-1.611,1.629v-2.281a.434.434,0,0,0-.869,0v2.281l-1.611-1.629a.448.448,0,1,0-.634.634l1.611,1.611h-2.3a.434.434,0,0,0,0,.869h2.317l-1.629,1.629a.437.437,0,0,0,0,.634.424.424,0,0,0,.308.127.4.4,0,0,0,.308-.127l1.611-1.629v2.281a.434.434,0,0,0,.869,0v-2.281l1.611,1.629a.437.437,0,0,0,.615,0,.437.437,0,0,0,0-.634l-1.629-1.629h2.317a.429.429,0,0,0,.434-.434A.372.372,0,0,0,120.668,492.231Z" transform="translate(-94.132 -480.284)" fill="#fff"/>
    </g>
  </g>
</svg>
