<svg xmlns="http://www.w3.org/2000/svg" width="27.529" height="18" viewBox="0 0 27.529 18">
  <g id="_1493748070_weather_icons-02" data-name="1493748070_weather_icons-02" transform="translate(-22 -28)">
    <path id="Path_162" data-name="Path 162" d="M29.026,33.529l-1.5-1.5a1.059,1.059,0,1,0-1.5,1.5l1.5,1.5a1.059,1.059,0,1,0,1.5-1.5Zm6.739-1.294a1.059,1.059,0,0,0,1.059-1.059V29.059a1.059,1.059,0,0,0-2.118,0v2.118A1.059,1.059,0,0,0,35.765,32.235ZM25.176,40.706H23.059a1.059,1.059,0,0,0,0,2.118h2.118a1.059,1.059,0,1,0,0-2.118Zm23.294,0H46.353a1.059,1.059,0,1,0,0,2.118h2.118a1.059,1.059,0,0,0,0-2.118ZM45.5,32.031a1.059,1.059,0,0,0-1.5,0l-1.5,1.5a1.059,1.059,0,1,0,1.5,1.5l1.5-1.5A1.059,1.059,0,0,0,45.5,32.031Zm-9.733,2.321a7.4,7.4,0,0,0-6.412,11.119,1.057,1.057,0,0,0,.916.528H41.261a1.057,1.057,0,0,0,.916-.528,7.4,7.4,0,0,0-6.412-11.119Zm4.848,9.529h-9.7a5.294,5.294,0,1,1,9.7,0Z" fill="#fff"/>
  </g>
</svg>
