<svg xmlns="http://www.w3.org/2000/svg" width="29.466" height="24" viewBox="0 0 29.466 24">
  <g id="Group_119" data-name="Group 119" transform="translate(-240.9 -434.761)">
    <path id="Path_376" data-name="Path 376" d="M266.14,435.371a11.26,11.26,0,1,1-14.308,6.988,11.253,11.253,0,0,1,14.308-6.988Z" transform="translate(-8.174)" fill="gray" fill-rule="evenodd"/>
    <g id="Group_118" data-name="Group 118" transform="translate(240.9 436.947)">
      <path id="Path_377" data-name="Path 377" d="M288.74,508.121l-16.61-.021a4.4,4.4,0,1,0,4.4,5.682.512.512,0,1,0-.975-.311,3.449,3.449,0,0,1-3.256,2.405,3.381,3.381,0,0,1-3.38-3.38,3.336,3.336,0,0,1,3.214-3.38l16.61.021h0a.491.491,0,0,0,.5-.5A.509.509,0,0,0,288.74,508.121Z" transform="translate(-262.301 -495.078)" fill="#fff"/>
      <path id="Path_378" data-name="Path 378" d="M266.468,457a.5.5,0,0,0,0-1H246.52a4.8,4.8,0,0,1-4.6-4.852,4.854,4.854,0,0,1,4.852-4.832,4.8,4.8,0,0,1,4.624,3.421.512.512,0,0,0,.975-.311,5.864,5.864,0,1,0-5.848,7.59h19.948Z" transform="translate(-240.9 -445.3)" fill="#fff"/>
      <path id="Path_379" data-name="Path 379" d="M317.289,465H303.852a2.252,2.252,0,1,1,2.281-2.9.49.49,0,0,0,.622.332.5.5,0,0,0,.332-.622,3.267,3.267,0,1,0-3.256,4.23h13.437a.491.491,0,0,0,.5-.5A.51.51,0,0,0,317.289,465Z" transform="translate(-288.3 -456.555)" fill="#fff"/>
    </g>
  </g>
</svg>
